<svg width="84" height="77" viewBox="0 0 84 77" fill="none" xmlns="http://www.w3.org/2000/svg">
<path d="M21.7919 65.2031C33.8272 71.225 48.4655 66.35 54.4873 54.3147C60.5092 42.2793 55.6342 27.641 43.5989 21.6192C31.5635 15.5974 16.9252 20.4723 10.9034 32.5077C4.88156 44.543 9.7565 59.1813 21.7919 65.2031Z" fill="white"/>
<path d="M64.1788 24.6418C69.6217 27.3651 76.2418 25.1605 78.9652 19.7175C81.6885 14.2745 79.4839 7.65443 74.0409 4.93107C68.5979 2.20772 61.9778 4.41239 59.2545 9.85536C56.5311 15.2983 58.7358 21.9184 64.1788 24.6418Z" fill="#F2BFAF" stroke="#2D2D2D" stroke-width="2" stroke-miterlimit="10"/>
<path d="M25.7437 66.7347C26.6495 65.6713 27.423 64.502 28.0473 63.2525C30.0988 59.1523 30.4375 54.4051 28.9889 50.0552C27.5402 45.7053 24.423 42.109 20.3228 40.0575C16.7813 38.2772 12.7336 37.7751 8.86446 38.636" stroke="#F8D57E" stroke-width="2" stroke-miterlimit="10"/>
<path d="M41.2108 20.0897C39.9403 21.3532 38.8842 22.8154 38.0843 24.4187C36.1212 28.3422 35.7966 32.8848 37.1819 37.0475C38.5672 41.2103 41.549 44.6525 45.4716 46.6173C48.9202 48.3497 52.8679 48.8152 56.6249 47.9324" stroke="#F8D57E" stroke-width="2" stroke-miterlimit="10"/>
<path d="M28.1802 62.3328L25.6802 66.3328L18.6802 62.3328L13.6802 58.3328L9.68018 51.8328L8.18018 45.3328L9.18018 38.8328H13.6802L19.6802 39.8328L26.1802 44.8328L28.1802 49.8328L29.6802 55.8328L28.1802 62.3328Z" fill="#F8D57E"/>
<path d="M38.8814 23.9311L41.665 20.1231L48.3563 24.6204L53.0529 28.9727L56.5708 35.7458L57.5952 42.3375L56.1262 48.7478L51.638 48.4213L45.7264 46.9886L39.6063 41.5301L36.9137 35.7458L36.9137 30.3052L38.8814 23.9311Z" fill="#F8D57E"/>
<path d="M21.7919 65.2031C33.8272 71.225 48.4655 66.35 54.4873 54.3147C60.5092 42.2793 55.6342 27.641 43.5989 21.6192C31.5635 15.5974 16.9252 20.4723 10.9034 32.5077C4.88156 44.543 9.7565 59.1813 21.7919 65.2031Z" stroke="#2D2D2D" stroke-width="2" stroke-miterlimit="10"/>
</svg>
