<svg width="30" height="35" viewBox="0 0 30 35" fill="none" xmlns="http://www.w3.org/2000/svg">
<g clip-path="url(#clip0_314_527)">
<path d="M29.2178 27.2761C28.6885 28.4989 28.0619 29.6245 27.336 30.6594C26.3466 32.0701 25.5364 33.0466 24.912 33.5889C23.9442 34.479 22.9072 34.9349 21.7967 34.9608C20.9995 34.9608 20.0381 34.7339 18.919 34.2738C17.7963 33.8158 16.7644 33.5889 15.821 33.5889C14.8315 33.5889 13.7703 33.8158 12.6352 34.2738C11.4984 34.7339 10.5826 34.9737 9.8824 34.9975C8.81752 35.0429 7.75611 34.5741 6.69664 33.5889C6.02042 32.9991 5.17462 31.988 4.16138 30.5557C3.07425 29.0261 2.18048 27.2524 1.48029 25.2302C0.730406 23.046 0.354492 20.931 0.354492 18.8833C0.354492 16.5377 0.861328 14.5147 1.87651 12.8194C2.67436 11.4577 3.73577 10.3835 5.06422 9.59499C6.39266 8.80643 7.82805 8.40459 9.37384 8.37888C10.2196 8.37888 11.3288 8.64051 12.7072 9.15469C14.0816 9.6706 14.9642 9.93223 15.3511 9.93223C15.6404 9.93223 16.6208 9.62631 18.2828 9.01643C19.8545 8.45083 21.181 8.21663 22.2677 8.30889C25.2123 8.54653 27.4246 9.70733 28.8959 11.7986C26.2623 13.3943 24.9596 15.6293 24.9855 18.4964C25.0093 20.7296 25.8194 22.588 27.4117 24.0636C28.1332 24.7484 28.9391 25.2777 29.8356 25.6537C29.6412 26.2175 29.436 26.7576 29.2178 27.2761ZM22.4643 0.700725C22.4643 2.45112 21.8248 4.08547 20.5501 5.5982C19.0119 7.39654 17.1514 8.4357 15.1337 8.27173C15.108 8.06173 15.0931 7.84072 15.0931 7.60848C15.0931 5.92809 15.8246 4.12975 17.1237 2.65937C17.7723 1.91489 18.5971 1.29586 19.5974 0.802048C20.5955 0.315607 21.5396 0.0465937 22.4276 0.000526428C22.4535 0.234527 22.4643 0.468543 22.4643 0.700703V0.700725Z" fill="#2D2D2D"/>
</g>
<defs>
<clipPath id="clip0_314_527">
<rect width="29.4812" height="35" fill="white" transform="translate(0.354492)"/>
</clipPath>
</defs>
</svg>
