<svg width="31" height="30" viewBox="0 0 31 30" fill="none" xmlns="http://www.w3.org/2000/svg">
<mask id="mask0_314_674" style="mask-type:alpha" maskUnits="userSpaceOnUse" x="0" y="0" width="31" height="30">
<circle cx="15.5" cy="15" r="15" fill="white"/>
</mask>
<g mask="url(#mask0_314_674)">
<path d="M22.4984 0L16 -1.5L9.4984 0C7.8484 0 0.5 6.6 0.5 8.25L-1.5 20C-1.5 21.65 7.84944 30 9.49944 30H22.4984C24.1484 30 29.5 24.65 29.5 23L32.5 9.5C32.5 7.85 24.1484 0 22.4984 0ZM20.9984 3V7.5H17.9984C17.0984 7.5 16.4984 8.1 16.4984 9V12H20.9984V16.5H16.4984V27H11.9984V16.5H8.9984V12H11.9984V8.25C11.9984 5.4 14.3984 3 17.2484 3H20.9984Z" fill="#2D2D2D"/>
</g>
</svg>
