<svg width="107" height="35" viewBox="0 0 107 35" fill="none" xmlns="http://www.w3.org/2000/svg">
<path d="M46.0098 18.4188C46.0098 23.4543 42.0706 27.1649 37.2362 27.1649C32.4018 27.1649 28.4625 23.4543 28.4625 18.4188C28.4625 13.3478 32.4018 9.67276 37.2362 9.67276C42.0706 9.67276 46.0098 13.3478 46.0098 18.4188ZM42.1691 18.4188C42.1691 15.2721 39.886 13.1191 37.2362 13.1191C34.5863 13.1191 32.3032 15.2721 32.3032 18.4188C32.3032 21.5339 34.5863 23.7185 37.2362 23.7185C39.886 23.7185 42.1691 21.53 42.1691 18.4188Z" fill="#2D2D2D"/>
<path d="M64.9372 18.4188C64.9372 23.4543 60.9979 27.1649 56.1635 27.1649C51.3292 27.1649 47.3899 23.4543 47.3899 18.4188C47.3899 13.3518 51.3292 9.67276 56.1635 9.67276C60.9979 9.67276 64.9372 13.3478 64.9372 18.4188ZM61.0965 18.4188C61.0965 15.2721 58.8134 13.1191 56.1635 13.1191C53.5137 13.1191 51.2306 15.2721 51.2306 18.4188C51.2306 21.5339 53.5137 23.7185 56.1635 23.7185C58.8134 23.7185 61.0965 21.53 61.0965 18.4188Z" fill="#2D2D2D"/>
<path d="M83.076 10.2011V25.903C83.076 32.362 79.2668 35 74.7637 35C70.5247 35 67.9735 32.1648 67.0113 29.8462L70.3552 28.4543C70.9506 29.8778 72.4096 31.5576 74.7598 31.5576C77.6422 31.5576 79.4285 29.7792 79.4285 26.4314V25.1735H79.2944C78.4348 26.2342 76.7787 27.1609 74.6888 27.1609C70.3157 27.1609 66.3094 23.3518 66.3094 18.4503C66.3094 13.5134 70.3157 9.67276 74.6888 9.67276C76.7747 9.67276 78.4309 10.5994 79.2944 11.6286H79.4285V10.2051H83.076V10.2011ZM79.7006 18.4503C79.7006 15.3707 77.6462 13.1191 75.0318 13.1191C72.382 13.1191 70.162 15.3707 70.162 18.4503C70.162 21.4985 72.382 23.7185 75.0318 23.7185C77.6462 23.7185 79.7006 21.4985 79.7006 18.4503Z" fill="#2D2D2D"/>
<path d="M89.0893 0.997635V26.6285H85.3433V0.997635H89.0893Z" fill="#2D2D2D"/>
<path d="M103.687 21.2973L106.668 23.2847C105.706 24.7082 103.388 27.1609 99.3812 27.1609C94.4127 27.1609 90.7021 23.3202 90.7021 18.4149C90.7021 13.2138 94.4443 9.6688 98.9514 9.6688C103.49 9.6688 105.71 13.2808 106.436 15.2327L106.834 16.2264L95.1422 21.0686C96.0373 22.8234 97.4293 23.7185 99.3812 23.7185C101.337 23.7185 102.693 22.7563 103.687 21.2973ZM94.5113 18.1507L102.327 14.9054C101.897 13.8131 100.604 13.0521 99.0815 13.0521C97.1296 13.0521 94.4127 14.7753 94.5113 18.1507Z" fill="#2D2D2D"/>
<path d="M14.2827 16.1435V12.433H26.7866C26.9088 13.0796 26.9719 13.8446 26.9719 14.6727C26.9719 17.4566 26.2109 20.899 23.7582 23.3517C21.3726 25.8359 18.3245 27.1609 14.2866 27.1609C6.8024 27.1609 0.509033 21.0646 0.509033 13.5804C0.509033 6.09621 6.8024 0 14.2866 0C18.427 0 21.3765 1.6246 23.5926 3.74211L20.9743 6.3604C19.3852 4.86987 17.2322 3.71056 14.2827 3.71056C8.81738 3.71056 4.54294 8.11513 4.54294 13.5804C4.54294 19.0457 8.81738 23.4503 14.2827 23.4503C17.8276 23.4503 19.8465 22.0268 21.1399 20.7334C22.1888 19.6845 22.8789 18.1861 23.151 16.1396L14.2827 16.1435Z" fill="#2D2D2D"/>
</svg>
