<svg width="31" height="30" viewBox="0 0 31 30" fill="none" xmlns="http://www.w3.org/2000/svg">
<rect x="0.5" width="30" height="30" rx="15" fill="#2D2D2D"/>
<g clip-path="url(#clip0_314_683)">
<path d="M19.1689 7H11.831C9.44287 7 7.5 8.94287 7.5 11.331V18.669C7.5 21.0571 9.44287 23 11.831 23H19.169C21.5571 23 23.5 21.0571 23.5 18.669V11.331C23.5 8.94287 21.5571 7 19.1689 7V7ZM15.5 19.3749C13.0876 19.3749 11.1251 17.4123 11.1251 15C11.1251 12.5876 13.0876 10.6251 15.5 10.6251C17.9123 10.6251 19.8749 12.5876 19.8749 15C19.8749 17.4123 17.9123 19.3749 15.5 19.3749ZM19.9795 11.6569C19.2666 11.6569 18.6867 11.077 18.6867 10.3641C18.6867 9.65124 19.2666 9.07129 19.9795 9.07129C20.6924 9.07129 21.2723 9.65124 21.2723 10.3641C21.2723 11.077 20.6924 11.6569 19.9795 11.6569Z" fill="white"/>
<path d="M15.5008 11.5632C13.6057 11.5632 12.0638 13.105 12.0638 15.0001C12.0638 16.8952 13.6057 18.4371 15.5008 18.4371C17.3959 18.4371 18.9377 16.8952 18.9377 15.0001C18.9377 13.105 17.3959 11.5632 15.5008 11.5632Z" fill="white"/>
<path d="M19.9792 10.0094C19.7837 10.0094 19.6245 10.1686 19.6245 10.3641C19.6245 10.5597 19.7837 10.7189 19.9792 10.7189C20.1749 10.7189 20.3341 10.5598 20.3341 10.3641C20.3341 10.1685 20.1749 10.0094 19.9792 10.0094Z" fill="white"/>
</g>
<defs>
<clipPath id="clip0_314_683">
<rect width="16" height="16" fill="white" transform="translate(7.5 7)"/>
</clipPath>
</defs>
</svg>
