<svg width="31" height="30" viewBox="0 0 31 30" fill="none" xmlns="http://www.w3.org/2000/svg">
<mask id="mask0_314_677" style="mask-type:alpha" maskUnits="userSpaceOnUse" x="0" y="0" width="31" height="30">
<g clip-path="url(#clip0_314_677)">
<path d="M28.3364 0H2.66362C1.46863 0 0.5 0.968628 0.5 2.16362V27.8364C0.5 29.0314 1.46863 30 2.66362 30H28.3364C29.5314 30 30.5 29.0314 30.5 27.8364V2.16362C30.5 0.968628 29.5314 0 28.3364 0V0ZM11.1412 22.6758H7.48799V11.6851H11.1412V22.6758ZM9.3147 10.1843H9.29089C8.065 10.1843 7.27216 9.34044 7.27216 8.28575C7.27216 7.20726 8.08926 6.38672 9.33896 6.38672C10.5887 6.38672 11.3577 7.20726 11.3815 8.28575C11.3815 9.34044 10.5887 10.1843 9.3147 10.1843ZM24.3138 22.6758H20.6611V16.796C20.6611 15.3184 20.1321 14.3106 18.8103 14.3106C17.8012 14.3106 17.2001 14.9904 16.936 15.6466C16.8394 15.8814 16.8158 16.2096 16.8158 16.5381V22.6758H13.1629C13.1629 22.6758 13.2107 12.7162 13.1629 11.6851H16.8158V13.2413C17.3013 12.4924 18.1699 11.4272 20.1081 11.4272C22.5116 11.4272 24.3138 12.998 24.3138 16.3737V22.6758Z" fill="white"/>
</g>
</mask>
<g mask="url(#mask0_314_677)">
<circle cx="15.5" cy="15" r="15" fill="#2D2D2D"/>
</g>
<defs>
<clipPath id="clip0_314_677">
<rect width="30" height="30" fill="white" transform="translate(0.5)"/>
</clipPath>
</defs>
</svg>
