<svg width="33" height="19" viewBox="0 0 33 19" fill="none" xmlns="http://www.w3.org/2000/svg">
<path d="M27.9407 1.77151C25.4523 1.13296 22.9063 0.744368 20.3407 0.611511C19.0807 0.531511 17.7007 0.49151 16.1507 0.50151C14.6007 0.51151 13.2207 0.501511 11.9707 0.611511C9.40507 0.744368 6.85912 1.13296 4.37069 1.77151C1.72069 2.47151 0.370685 11.7115 0.0106847 14.5115C-0.0232194 14.7416 0.0241356 14.9763 0.144596 15.1752C0.265056 15.3742 0.451092 15.5249 0.670688 15.6015C0.670688 15.6015 1.47068 15.9215 2.89068 16.3315C7.10586 17.6069 11.4868 18.2506 15.8907 18.2415H16.4407C20.8447 18.2516 25.2257 17.6079 29.4407 16.3315C30.8607 15.9215 31.6707 15.6015 31.6707 15.6015C31.8903 15.5249 32.0763 15.3742 32.1968 15.1752C32.3172 14.9763 32.3646 14.7416 32.3307 14.5115C31.9607 11.6815 30.6007 2.44151 27.9407 1.77151Z" fill="#2D2D2D"/>
<path d="M16.1799 4.38154C21.8353 4.38154 26.4199 3.75474 26.4199 2.98154C26.4199 2.20834 21.8353 1.58154 16.1799 1.58154C10.5245 1.58154 5.93994 2.20834 5.93994 2.98154C5.93994 3.75474 10.5245 4.38154 16.1799 4.38154Z" fill="white"/>
<path d="M9.62127 8.87144V8.09744H11.0673V12.4714H10.2033V8.87144H9.62127ZM12.1611 11.5234C12.5451 11.2034 12.8511 10.9374 13.0791 10.7254C13.3071 10.5094 13.4971 10.2854 13.6491 10.0534C13.8011 9.82144 13.8771 9.59344 13.8771 9.36944C13.8771 9.16544 13.8291 9.00544 13.7331 8.88944C13.6371 8.77344 13.4891 8.71544 13.2891 8.71544C13.0891 8.71544 12.9351 8.78344 12.8271 8.91944C12.7191 9.05144 12.6631 9.23344 12.6591 9.46544H11.8431C11.8591 8.98544 12.0011 8.62144 12.2691 8.37344C12.5411 8.12544 12.8851 8.00144 13.3011 8.00144C13.7571 8.00144 14.1071 8.12344 14.3511 8.36744C14.5951 8.60744 14.7171 8.92544 14.7171 9.32144C14.7171 9.63344 14.6331 9.93144 14.4651 10.2154C14.2971 10.4994 14.1051 10.7474 13.8891 10.9594C13.6731 11.1674 13.3911 11.4194 13.0431 11.7154H14.8131V12.4114H11.8491V11.7874L12.1611 11.5234ZM17.4064 12.4714L16.2784 11.0554V12.4714H15.4384V8.03144H16.2784V10.5574L17.3944 9.14744H18.4864L17.0224 10.8154L18.4984 12.4714H17.4064ZM20.2443 9.09344C20.4923 9.09344 20.7103 9.14344 20.8983 9.24344C21.0863 9.33944 21.2343 9.46544 21.3423 9.62144V9.14744H22.1883V12.4954C22.1883 12.8034 22.1263 13.0774 22.0023 13.3174C21.8783 13.5614 21.6923 13.7534 21.4443 13.8934C21.1963 14.0374 20.8963 14.1094 20.5443 14.1094C20.0723 14.1094 19.6843 13.9994 19.3803 13.7794C19.0803 13.5594 18.9103 13.2594 18.8703 12.8794H19.7043C19.7483 13.0314 19.8423 13.1514 19.9863 13.2394C20.1343 13.3314 20.3123 13.3774 20.5203 13.3774C20.7643 13.3774 20.9623 13.3034 21.1143 13.1554C21.2663 13.0114 21.3423 12.7914 21.3423 12.4954V11.9794C21.2343 12.1354 21.0843 12.2654 20.8923 12.3694C20.7043 12.4734 20.4883 12.5254 20.2443 12.5254C19.9643 12.5254 19.7083 12.4534 19.4763 12.3094C19.2443 12.1654 19.0603 11.9634 18.9243 11.7034C18.7923 11.4394 18.7263 11.1374 18.7263 10.7974C18.7263 10.4614 18.7923 10.1634 18.9243 9.90344C19.0603 9.64344 19.2423 9.44344 19.4703 9.30344C19.7023 9.16344 19.9603 9.09344 20.2443 9.09344ZM21.3423 10.8094C21.3423 10.6054 21.3023 10.4314 21.2223 10.2874C21.1423 10.1394 21.0343 10.0274 20.8983 9.95144C20.7623 9.87144 20.6163 9.83144 20.4603 9.83144C20.3043 9.83144 20.1603 9.86944 20.0283 9.94544C19.8963 10.0214 19.7883 10.1334 19.7043 10.2814C19.6243 10.4254 19.5843 10.5974 19.5843 10.7974C19.5843 10.9974 19.6243 11.1734 19.7043 11.3254C19.7883 11.4734 19.8963 11.5874 20.0283 11.6674C20.1643 11.7474 20.3083 11.7874 20.4603 11.7874C20.6163 11.7874 20.7623 11.7494 20.8983 11.6734C21.0343 11.5934 21.1423 11.4814 21.2223 11.3374C21.3023 11.1894 21.3423 11.0134 21.3423 10.8094Z" fill="white"/>
</svg>
