<svg width="70" height="70" viewBox="0 0 70 70" fill="none" xmlns="http://www.w3.org/2000/svg">
<circle cx="35" cy="35" r="34" fill="#FF6250" stroke="#2D2D2D" stroke-width="2"/>
<path d="M49.5 30.97H19.53C19.4527 30.97 19.39 31.0327 19.39 31.11V38.06C19.39 38.1373 19.4527 38.2 19.53 38.2H49.5C49.5773 38.2 49.64 38.1373 49.64 38.06V31.11C49.64 31.0327 49.5773 30.97 49.5 30.97Z" fill="white"/>
<path d="M36.3999 30.8401C36.7585 30.8856 37.1214 30.8856 37.48 30.8401C37.98 30.8401 38.48 30.8401 39.01 30.7801L41.96 30.7101H42.46C43.0201 30.7955 43.5898 30.7955 44.1499 30.7101C44.2463 30.7002 44.3435 30.7002 44.4399 30.7101C45.6599 30.8501 46.8801 30.7101 48.1001 30.7101H49.25C49.46 30.7101 49.6501 30.7101 49.8101 30.8401C49.8848 31.0173 49.9221 31.2078 49.9199 31.4001V31.4501C49.9199 31.6701 49.9199 31.9302 49.9199 32.1002C49.9246 32.2663 49.9516 32.4311 50 32.5901C50.017 32.7129 50.017 32.8374 50 32.9601C50 33.8501 50 34.5901 50 35.3001V36.3001C50 36.6701 50 37.0602 50 37.4702C50.0342 37.752 50.0103 38.0378 49.9299 38.3101C49.914 38.3728 49.8814 38.43 49.8357 38.4758C49.7899 38.5215 49.7326 38.5542 49.6699 38.5701C49.5431 38.6103 49.4125 38.6371 49.28 38.6501H47.77H44.51C43.66 38.6501 42.81 38.6501 41.96 38.6501C40.63 38.6501 39.29 38.6502 37.96 38.7202C36.63 38.7902 35.49 38.8201 34.25 38.8201H31.9199H30.3899C29.1599 38.8201 27.92 38.8901 26.71 38.8201C25.24 38.8201 23.8101 38.8201 22.3801 38.9001C22.1101 38.9001 21.8401 38.9002 21.6001 38.9702C20.9721 39.1178 20.3125 39.0472 19.73 38.7701C19.46 38.5901 19.28 38.4001 19.53 38.1901C19.78 37.9801 20.03 37.8601 20.95 37.8801C21.87 37.9001 22.5 37.8201 23.29 37.8801C23.5293 37.8693 23.767 37.8358 24 37.7801V37.7801C25 37.7801 26 37.7801 27 37.7001C27.33 37.7001 27.7201 37.7001 28.0801 37.7001C28.4401 37.7001 29.08 37.7001 29.5 37.7001C30.68 37.7001 31.87 37.7001 33.04 37.6301C33.38 37.6301 33.7799 37.6301 34.1499 37.6301C35.2291 37.6901 36.3107 37.6901 37.3899 37.6301C38.3899 37.7601 39.3899 37.6301 40.3899 37.7101C40.7399 37.7101 41.11 37.7101 41.47 37.7101H41.6899L43.46 37.6301H45.6699C46.1899 37.6301 46.67 37.6301 47.23 37.6301C47.4731 37.6442 47.7168 37.6442 47.96 37.6301C48.1649 37.6119 48.3687 37.5819 48.5701 37.5401V37.5401C48.6824 37.6032 48.8123 37.6279 48.9399 37.6102C48.9999 37.5102 48.9399 37.36 48.9399 37.24V34.6401V31.74C48.9553 31.6541 48.9553 31.5661 48.9399 31.4802C48.8799 31.4202 48.7699 31.4802 48.6899 31.4802H48.4199H47.8999C47.6526 31.5264 47.4015 31.5498 47.1499 31.5501C46.1507 31.4951 45.1491 31.4951 44.1499 31.5501H43.5601C43.4858 31.5231 43.406 31.5144 43.3276 31.5248C43.2493 31.5353 43.1747 31.5646 43.1101 31.6102V31.6102H42.54C42.2793 31.573 42.0136 31.6184 41.78 31.74C41.42 31.74 41.2001 31.59 40.8401 31.74C40.2101 31.74 39.56 31.74 38.95 31.74C37.9857 31.7091 37.0205 31.7393 36.0601 31.8301C35.7906 31.8955 35.5094 31.8955 35.24 31.8301C35.17 31.8301 34.7799 31.8301 34.6699 31.8301C34.4943 31.8035 34.3156 31.8035 34.1399 31.8301C33.2099 31.8301 32.2701 31.8301 31.3401 31.8301C31.0072 31.8047 30.6729 31.8047 30.3401 31.8301C29.735 31.94 29.1151 31.94 28.51 31.8301C28.1215 31.7813 27.7286 31.7813 27.3401 31.8301C26.7163 31.9554 26.0737 31.9554 25.45 31.8301C25.2141 31.8028 24.9759 31.8028 24.74 31.8301H24.6399H24.75L21.4299 31.8901C21.0399 31.8901 20.61 31.8901 20.26 31.8901C20.26 31.8901 20.1899 31.8901 20.1699 31.9401V32.3301C20.1699 33.3301 20.31 34.2402 20.27 35.2302C20.235 35.863 20.235 36.4972 20.27 37.1301C20.2986 37.3459 20.2746 37.5655 20.2 37.7701C20.176 37.8458 20.1461 37.9193 20.1101 37.99V37.99H19.71V37.8801C19.62 37.5901 19.5299 37.3101 19.4299 37.0101C19.3299 36.7101 19.3701 36.0902 19.3401 35.6102C19.2953 35.3622 19.2953 35.1082 19.3401 34.8602C19.385 34.6088 19.385 34.3515 19.3401 34.1002C19.2201 33.5402 19.2299 32.8701 19.1399 32.3001C19.28 31.9865 19.3219 31.6379 19.26 31.3001C19.26 31.1901 19.26 31.0901 19.26 31.0001C19.2612 30.9768 19.2672 30.9541 19.2776 30.9333C19.288 30.9124 19.3025 30.8938 19.3203 30.8788C19.3381 30.8638 19.3588 30.8527 19.3811 30.846C19.4034 30.8393 19.4268 30.8374 19.45 30.8401C19.6296 30.8253 19.8103 30.8253 19.99 30.8401C20.3265 30.8602 20.6609 30.907 20.99 30.9802L21.49 30.8001C21.5689 30.8964 21.6754 30.9661 21.7952 31.0001C21.9149 31.034 22.0422 31.0305 22.1599 30.99C23.0193 30.8161 23.9025 30.7925 24.77 30.9201L25.1599 30.7101L25.6301 30.9001C26.0383 30.8448 26.452 30.8448 26.8601 30.9001C26.9798 30.9123 27.1003 30.9123 27.22 30.9001C27.39 30.9001 27.58 30.9001 27.72 30.9001C27.8925 30.8463 28.0774 30.8463 28.25 30.9001H28.48H28.24C28.3 30.7901 28.5401 30.7601 28.8301 30.7501C29.2901 30.7501 29.83 30.7501 30.2 30.6501C30.6318 30.6404 31.0627 30.6037 31.49 30.5401C31.7359 30.5127 31.9841 30.5127 32.23 30.5401V30.5401C32.8862 30.395 33.5587 30.3378 34.23 30.3701L35.1499 30.6601H35.3501H36.3501L36.3999 30.8401Z" fill="white"/>
<path d="M19.21 31.6901C19.15 31.8601 19.1 32.0601 19.04 32.2001V32.13C19.04 32.03 19.0401 31.8201 19.1001 31.7101C19.1243 31.6266 19.1577 31.5461 19.2 31.4701L19.21 31.6901Z" fill="white"/>
<path d="M36.8401 30.68L36.9399 30.62C36.9897 30.613 37.0403 30.613 37.0901 30.62C37.0901 30.62 37.0901 30.62 37.0901 30.67L36.8401 30.68Z" fill="white"/>
<path d="M36.41 30.84L36.5 30.79L36.58 30.82L36.4 30.84H36.41Z" fill="white"/>
<path d="M46 31.66H46.0801H45.99C45.99 31.66 46.01 31.67 46 31.66Z" fill="white"/>
<path d="M35.1699 30.82L35.3199 30.77L35.3799 30.82H35.3899H35.1599H35.1699Z" fill="white"/>
<path d="M31.8301 29.96L31.8801 29.97L31.8101 29.98L31.8301 29.96Z" fill="white"/>
<path d="M40.99 31.68L41.19 31.75H41.2L41 31.67L40.99 31.68Z" fill="white"/>
<path d="M43.46 31.65H43.27H43.26L43.48 31.66L43.46 31.65Z" fill="white"/>
<path d="M43.69 31.59L43.46 31.65L43.48 31.66L43.7 31.59H43.69Z" fill="white"/>
<path d="M41.62 37.86L41.84 37.87V37.86H41.61H41.62Z" fill="white"/>
<path d="M37.98 19.46H31.03C30.9527 19.46 30.89 19.5226 30.89 19.6V49.57C30.89 49.6473 30.9527 49.71 31.03 49.71H37.98C38.0573 49.71 38.12 49.6473 38.12 49.57V19.6C38.12 19.5226 38.0573 19.46 37.98 19.46Z" fill="white"/>
<path d="M30.77 32.7001C30.8256 32.3389 30.8256 31.9713 30.77 31.6101C30.77 31.1201 30.7699 30.6101 30.7099 30.0901L30.6398 27.0901C30.6398 26.9201 30.6398 26.7501 30.6398 26.5901C30.7252 26.03 30.7252 25.4601 30.6398 24.9C30.6299 24.8036 30.6299 24.7065 30.6398 24.6101C30.7698 23.3901 30.6398 22.17 30.6398 20.94V19.8C30.6398 19.59 30.64 19.4 30.77 19.24C30.9471 19.1652 31.1378 19.1278 31.33 19.13H32.04C32.2023 19.1196 32.3631 19.0928 32.52 19.05C32.6461 19.0331 32.7737 19.0331 32.8998 19.05C33.7898 19.05 34.5299 19.05 35.2299 19.05H36.2299H37.3998C37.6817 19.0149 37.9678 19.0387 38.2399 19.12C38.3026 19.136 38.36 19.1686 38.4057 19.2143C38.4515 19.2601 38.484 19.3173 38.4999 19.38C38.5438 19.5064 38.5741 19.6372 38.59 19.77V21.28L38.6398 24.54C38.6398 25.39 38.6398 26.2401 38.6398 27.0901C38.6398 28.4201 38.6399 29.7601 38.7099 31.0901C38.7799 32.4201 38.81 33.56 38.82 34.8V37.13V38.66C38.82 39.89 38.89 41.1301 38.82 42.3401C38.7663 43.7838 38.7929 45.2293 38.8998 46.67C38.8998 46.93 38.8999 47.2101 38.9599 47.4501C39.1076 48.078 39.0371 48.7375 38.76 49.3201C38.58 49.5901 38.3899 49.77 38.1799 49.52C37.9699 49.27 37.8601 49.0201 37.8701 48.1001C37.8801 47.1801 37.8101 46.55 37.8701 45.76C37.8642 45.5203 37.8306 45.2821 37.77 45.05V45.05C37.77 44.05 37.7699 43.05 37.6899 42.05C37.6703 41.6903 37.6703 41.3298 37.6899 40.9701C37.6899 40.5001 37.6899 40.02 37.6899 39.55C37.6899 38.37 37.6901 37.18 37.6101 36C37.6101 35.67 37.6101 35.27 37.6101 34.9C37.6751 33.821 37.6751 32.739 37.6101 31.66C37.7401 30.66 37.6099 29.66 37.6899 28.66C37.7094 28.2969 37.7094 27.9331 37.6899 27.5701V27.5701V27.3401C37.6899 26.7501 37.6401 26.1401 37.6101 25.5701C37.6101 24.8401 37.6101 24.1001 37.6101 23.3601C37.6101 22.8401 37.5601 22.36 37.6101 21.8C37.6292 21.5571 37.6292 21.313 37.6101 21.0701C37.5919 20.8651 37.5618 20.6615 37.52 20.4601V20.4601C37.5816 20.347 37.6095 20.2185 37.6 20.0901C37.49 20.0301 37.3399 20.0901 37.2299 20.0901H34.6201H31.7199C31.6335 20.0799 31.5463 20.0799 31.4599 20.0901C31.4599 20.1601 31.4599 20.2701 31.4599 20.3501V20.62V21.15C31.4982 21.3982 31.5183 21.6489 31.52 21.9C31.4646 22.8992 31.4646 23.9008 31.52 24.9V25.51C31.47 25.75 31.52 25.8801 31.59 25.9501C31.59 26.1401 31.59 26.33 31.59 26.52C31.5455 26.7796 31.5876 27.0467 31.7099 27.28C31.7099 27.64 31.5699 27.8601 31.6599 28.2201C31.6599 28.8501 31.6599 29.5001 31.6599 30.1101C31.6341 31.0744 31.6642 32.0392 31.7499 33C31.8153 33.2694 31.8153 33.5506 31.7499 33.8201C31.7499 33.8901 31.8099 34.28 31.7499 34.39C31.7233 34.5657 31.7233 34.7444 31.7499 34.92C31.7499 35.85 31.7499 36.7901 31.7499 37.7201C31.7499 38.0501 31.7499 38.4201 31.7499 38.7201C31.855 39.3256 31.855 39.9446 31.7499 40.55C31.6958 40.9382 31.6958 41.332 31.7499 41.7201C31.8752 42.3439 31.8752 42.9863 31.7499 43.6101C31.7278 43.8462 31.7278 44.0839 31.7499 44.3201L31.6999 44.42L31.7499 44.31L31.8 47.63C31.8 48.02 31.8 48.45 31.8 48.8C31.8 48.8 31.8 48.87 31.85 48.88C31.85 48.88 31.8498 48.88 31.8998 48.88H32.1899C33.1899 48.88 34.1 48.74 35.09 48.78C35.7229 48.815 36.3571 48.815 36.9899 48.78C37.2058 48.7514 37.4255 48.7755 37.6301 48.8501C37.7057 48.874 37.7793 48.9041 37.85 48.94H37.8998V49.63V49.3401H37.79L36.9199 49.62L35.52 49.7101C35.2753 49.755 35.0246 49.755 34.78 49.7101C34.5253 49.6652 34.2647 49.6652 34.01 49.7101C33.45 49.8301 32.7799 49.82 32.2099 49.91C31.8963 49.7699 31.5477 49.7281 31.2099 49.79H30.9099C30.8866 49.7888 30.8638 49.7828 30.843 49.7724C30.8221 49.7621 30.8038 49.7475 30.7888 49.7297C30.7738 49.7119 30.7625 49.6912 30.7558 49.6689C30.7491 49.6466 30.7472 49.6232 30.7499 49.6001C30.74 49.4202 30.74 49.2399 30.7499 49.06C30.7749 48.724 30.8215 48.39 30.8898 48.06L30.7199 47.56C30.8144 47.4799 30.8823 47.3729 30.9145 47.2532C30.9467 47.1335 30.9415 47.0067 30.8998 46.89C30.7261 46.0306 30.7026 45.1475 30.83 44.28L30.6301 43.89C30.6901 43.73 30.75 43.59 30.81 43.42C30.7696 43.0093 30.7899 42.5949 30.8701 42.19C30.8812 42.0703 30.8812 41.9498 30.8701 41.8301V41.8301C30.8701 41.6601 30.8701 41.4701 30.8701 41.3301C30.8162 41.1575 30.8162 40.9726 30.8701 40.8L30.9199 40.56L30.8701 40.81C30.7701 40.75 30.7399 40.5101 30.7199 40.2201C30.7199 39.7601 30.7201 39.2201 30.6201 38.8501C30.6204 38.4177 30.5834 37.9861 30.51 37.56C30.4928 37.3137 30.4928 37.0664 30.51 36.8201C30.3649 36.1639 30.3078 35.4913 30.34 34.8201C30.44 34.5201 30.5401 34.21 30.6301 33.9V33.69V32.69L30.77 32.7001Z" fill="white"/>
<path d="M31.6301 49.89C31.7901 49.95 31.9901 50.0001 32.1301 50.0601H32.0601C31.9202 50.0693 31.7797 50.0693 31.6399 50.0601C31.5564 50.0359 31.4759 50.0024 31.3999 49.9601L31.6301 49.89Z" fill="white"/>
<path d="M30.6102 32.3L30.5501 32.2001C30.5432 32.147 30.5432 32.0931 30.5501 32.04C30.5501 32.04 30.5502 32.04 30.6002 32.04L30.6102 32.3Z" fill="white"/>
<path d="M30.69 47.9801C30.6857 47.9536 30.6857 47.9265 30.69 47.9V47.9701V47.9801Z" fill="white"/>
<path d="M29.9098 26.38V26.4601V26.3601C29.9096 26.3668 29.9096 26.3733 29.9098 26.38V26.38Z" fill="white"/>
<path d="M30.77 32.69L30.71 32.59L30.74 32.51L30.77 32.7V32.69Z" fill="white"/>
<path d="M31.5901 23.1001V23.02V23.1001C31.6001 23.0901 31.5901 23.1001 31.5901 23.1001Z" fill="white"/>
<path d="M30.75 33.92L30.7 33.77L30.75 33.72V33.71L30.74 33.94L30.75 33.92Z" fill="white"/>
<path d="M29.89 37.27L29.9 37.22L29.91 37.28L29.89 37.27Z" fill="white"/>
<path d="M31.61 28.1L31.68 27.9V27.89L31.6 28.09L31.61 28.1Z" fill="white"/>
<path d="M31.5801 25.63V25.83L31.5901 25.62L31.5801 25.63Z" fill="white"/>
<path d="M31.52 25.4L31.58 25.63L31.59 25.62L31.52 25.39V25.4Z" fill="white"/>
</svg>
