<svg width="134" height="35" viewBox="0 0 134 35" fill="none" xmlns="http://www.w3.org/2000/svg">
<path fill-rule="evenodd" clip-rule="evenodd" d="M117.682 10.327C117.682 9.70114 117.178 9.19435 116.552 9.19435H114.877C114.25 9.19435 113.746 9.70327 113.746 10.3291V27.8471C113.746 28.4736 114.251 28.9804 114.877 28.9804H116.553C117.178 28.9804 117.682 28.4708 117.682 27.8457V10.327ZM119.818 10.7924V11.6256C119.818 11.9692 120.099 12.2479 120.444 12.2479H131.999C132.527 12.2479 132.954 11.8224 132.954 11.2956V9.88574C132.954 9.35829 132.522 8.88144 131.999 8.93347C131.999 8.93347 120.827 10.0297 120.469 10.0696C120.289 10.0855 120.122 10.1688 120.001 10.3029C119.88 10.437 119.815 10.6119 119.818 10.7924ZM110.462 28.9811C107.588 28.9811 105.778 26.8007 105.778 24.3744L105.776 17.3649H104.954C104.85 17.365 104.747 17.3446 104.651 17.3049C104.554 17.2651 104.467 17.2068 104.393 17.1333C104.32 17.0598 104.261 16.9724 104.221 16.8763C104.181 16.7802 104.161 16.6771 104.161 16.573V15.3998C104.161 14.9615 104.517 14.6086 104.957 14.6086L105.776 14.61L105.775 10.3006C105.775 9.69044 106.266 9.19577 106.878 9.19577H108.512C109.121 9.19577 109.615 9.69401 109.615 10.3041V14.6108L112.161 14.61C112.599 14.61 112.957 14.9622 112.957 15.4012V16.5745C112.957 17.0135 112.601 17.3664 112.164 17.3664L109.615 17.3657L109.618 23.8491C109.618 25.1214 110.389 25.9903 111.766 25.9903H111.998C112.474 25.9903 112.862 26.3731 112.862 26.8492V28.1215C112.862 28.5991 112.476 28.9818 112 28.9818H110.462V28.9811ZM83.5419 14.1047C78.8945 14.1047 76.2886 17.7413 76.2886 21.5739C76.2886 25.6581 79.0798 29.2527 83.5725 29.2527C86.6475 29.2527 89.6782 27.6325 90.2506 24.9732C90.3283 24.6139 90.0866 24.1435 89.5813 24.1406L87.3831 24.1421C86.9846 24.1421 86.6589 24.3331 86.4629 24.621C85.8335 25.5427 84.9133 26.0323 83.5518 26.0323C81.6266 26.0323 80.293 24.5163 80.1925 22.8348H89.535C90.3953 22.8348 90.7809 22.3672 90.7809 21.5732C90.7809 17.8375 88.5677 14.1047 83.5419 14.1047ZM83.5419 17.1041C85.2568 17.1041 86.738 18.3243 86.8884 19.9759H80.2203C80.3707 18.3243 81.8269 17.1041 83.5419 17.1041ZM126.117 14.1047C121.469 14.1047 118.862 17.7413 118.862 21.5739C118.862 25.6581 121.654 29.2527 126.146 29.2527C129.221 29.2527 132.252 27.6325 132.824 24.9732C132.902 24.6139 132.661 24.1435 132.155 24.1406L129.958 24.1421C129.558 24.1421 129.233 24.3331 129.037 24.621C128.407 25.5427 127.487 26.0323 126.126 26.0323C124.2 26.0323 122.867 24.5163 122.766 22.8348H132.109C132.969 22.8348 133.355 22.3672 133.355 21.5732C133.355 17.8375 131.141 14.1047 126.117 14.1047ZM126.117 17.1041C127.831 17.1041 129.313 18.3243 129.462 19.9759H122.794C122.944 18.3243 124.4 17.1041 126.117 17.1041Z" fill="#2D2D2D"/>
<path fill-rule="evenodd" clip-rule="evenodd" d="M102.634 9.39031H72.3696C71.6818 9.39031 71.1266 9.94913 71.1266 10.637L71.2299 22.5227C71.2299 22.5227 64.7093 10.7425 64.3693 10.1423C64.0493 9.57706 63.3629 9.05601 62.412 9.05601H59.9237C59.2352 9.05601 58.6785 9.61484 58.6785 10.3027L58.6799 27.7338C58.6799 28.4217 59.2359 28.9798 59.9244 28.9798H61.5203C61.8509 28.979 62.1677 28.8471 62.401 28.6129C62.6344 28.3788 62.7652 28.0616 62.7649 27.731L62.6644 15.5117C62.6644 15.5117 69.2484 27.4081 69.5299 27.8771C69.9098 28.5108 70.5535 28.9798 71.4844 28.9798H73.7703C74.4595 28.9798 75.0148 28.4217 75.0148 27.7338L75.0134 12.3448H102.635C102.747 12.3451 102.857 12.3234 102.96 12.2809C103.064 12.2384 103.157 12.1759 103.236 12.0971C103.315 12.0183 103.378 11.9247 103.421 11.8217C103.464 11.7186 103.486 11.6082 103.486 11.4966V10.2385C103.485 10.0131 103.395 9.79716 103.235 9.63811C103.076 9.47906 102.859 9.38993 102.634 9.39031Z" fill="#2D2D2D"/>
<path fill-rule="evenodd" clip-rule="evenodd" d="M97.7347 16.9587C99.0505 16.9587 100.035 17.4363 100.39 18.261C100.56 18.658 100.89 18.7343 101.342 18.7343H103.152C103.453 18.7343 103.793 18.477 103.793 18.0856C103.793 15.9815 101.286 14.1033 97.7333 14.1033C94.0582 14.1033 91.6454 15.8546 91.6454 18.6423C91.6454 20.7764 93.3297 22.0459 95.4025 22.5876C96.3477 22.8356 97.9614 23.2334 98.7462 23.4394C99.593 23.6618 100.35 23.9198 100.35 24.6461C100.35 25.7901 99.1418 26.18 97.826 26.18C96.5772 26.18 95.3341 25.6219 94.9777 24.7324C94.7703 24.2156 94.4096 24.1408 93.8615 24.1408H92.0211C91.6996 24.1408 91.3304 24.4166 91.3304 24.8357V25.0724C91.3304 27.1088 94.0618 29.2407 97.8288 29.2407C100.5 29.2407 104.223 28.1309 104.223 24.5478C104.223 22.4721 102.835 21.0352 100.576 20.4621C99.692 20.2383 97.5687 19.698 97.1068 19.5782C96.2828 19.3651 95.5158 19.0964 95.5158 18.3907C95.5158 17.3222 96.5031 16.9587 97.7347 16.9587ZM30.7416 5.36312C30.9025 5.36312 31.0568 5.29922 31.1705 5.18546C31.2843 5.07171 31.3482 4.91742 31.3482 4.75655C31.3482 4.59567 31.2843 4.44139 31.1705 4.32763C31.0568 4.21387 30.9025 4.14997 30.7416 4.14997C30.5808 4.14997 30.4265 4.21387 30.3127 4.32763C30.199 4.44139 30.1351 4.59567 30.1351 4.75655C30.1351 4.91742 30.199 5.07171 30.3127 5.18546C30.4265 5.29922 30.5808 5.36312 30.7416 5.36312ZM22.5959 4.28896C22.7313 4.28896 22.8611 4.23519 22.9568 4.13948C23.0525 4.04377 23.1063 3.91396 23.1063 3.7786C23.1063 3.64325 23.0525 3.51344 22.9568 3.41773C22.8611 3.32202 22.7313 3.26825 22.5959 3.26825C22.4606 3.26825 22.3308 3.32202 22.2351 3.41773C22.1394 3.51344 22.0856 3.64325 22.0856 3.7786C22.0856 3.91396 22.1394 4.04377 22.2351 4.13948C22.3308 4.23519 22.4606 4.28896 22.5959 4.28896ZM16.4895 16.7684L16.2408 16.5018C16.9336 15.8582 17.667 14.8318 17.7861 14.2295C17.8966 13.6692 18.702 13.7583 18.5488 14.3678C18.3542 15.1468 17.4005 16.0877 16.4895 16.7684ZM11.3211 4.50137C10.046 5.05306 9.85921 6.36031 10.7538 7.14509C11.8322 8.09024 13.6106 7.26698 13.4395 5.82002C14.8858 5.89415 15.8188 4.40015 15.5886 3.35093C16.2322 2.79995 16.2964 1.62243 15.5244 1.15983C14.6969 0.664443 13.9178 0.85404 13.4217 1.80989C12.0966 1.71366 10.8272 2.75575 11.3211 4.50137L10.7074 4.23336C9.89841 2.54121 11.3154 0.812701 13.0532 1.21115C13.1791 0.93854 13.3624 0.69633 13.5905 0.501082C13.8186 0.305834 14.0862 0.162151 14.375 0.0798553C14.6638 -0.00244076 14.967 -0.0214068 15.2637 0.0242504C15.5605 0.0699077 15.8439 0.17911 16.0946 0.344398C17.2101 1.02012 17.4461 2.7636 16.26 3.60896C16.8195 5.23625 15.704 6.56559 14.0069 6.41377C13.808 8.50651 11.8336 8.77666 10.5584 7.78304C9.83854 7.22207 9.54416 6.44442 9.40517 5.8578C9.25904 5.23696 9.25904 4.68099 8.64605 4.04162C8.18488 3.55907 7.35876 3.57546 7.35876 3.57546C7.35876 2.05509 5.93676 0.66373 4.1712 1.33731C3.54537 0.798447 2.772 0.744985 2.21817 1.41144C1.89599 1.79848 1.71851 2.81563 2.71141 3.28179C2.66009 4.66745 3.71644 5.55201 5.26104 5.42942C5.32163 6.16572 6.13777 6.85 6.86124 6.94765L6.85483 7.31759C6.08288 7.24346 5.66519 7.51289 5.15056 8.15083C3.3351 8.0653 2.06349 8.87288 2.11624 10.1751C0.840357 10.4175 0.601575 11.7533 1.32505 12.4646C2.04853 13.176 3.10915 12.8973 3.47053 12.0476C4.75782 12.2928 5.89471 11.3705 5.94674 10.3063C7.14921 10.3063 7.67524 9.83087 7.87197 8.72534L8.32601 8.76241C8.46001 9.95276 7.90903 11.0825 6.4742 10.9478C6.43713 12.3691 5.0579 13.1639 3.77132 12.6727C3.17045 13.8011 1.79406 14.2523 0.638639 13.151C-0.47758 12.0875 -0.0698674 10.2664 1.3892 9.82517C1.4227 8.43167 2.45196 7.10803 4.45132 7.61838C4.45132 7.61838 4.70863 6.99612 5.33446 6.95905C4.91748 6.78798 4.60172 6.55776 4.51547 6.12866C3.00722 6.45013 1.72635 5.06162 2.0692 3.66385C0.708492 2.9475 0.686396 1.60318 1.3614 0.804148C2.06492 -0.0276729 3.23674 -0.211572 4.28524 0.685113C6.06078 -0.298531 8.06798 0.906073 7.94538 2.92896C9.18705 2.84628 9.94118 3.93185 9.8029 5.06233C10.0075 4.56409 10.247 4.33315 10.706 4.23336L11.3211 4.50137Z" fill="#2D2D2D"/>
<path fill-rule="evenodd" clip-rule="evenodd" d="M14.3718 2.07365L14.6719 2.2882C14.0896 3.51704 13.0589 4.82215 12.1764 5.53992L11.8393 5.28617C12.4651 4.26831 13.808 2.58828 14.3718 2.07365ZM5.68441 8.82301L5.88684 9.12309C5.15124 9.87721 3.78983 10.883 3.06706 11.2322L2.7848 10.9257C3.48404 10.1716 4.8198 9.18439 5.68441 8.82301ZM7.44356 5.17141L7.08859 5.61049C6.12562 4.97896 4.22534 3.28111 3.79695 2.66883L4.09632 2.36304C5.01653 2.8292 6.81203 4.43012 7.44356 5.17141ZM5.65732 21.2832C5.76709 21.8342 5.67514 22.4443 6.17195 23.0402C6.3473 23.249 7.31169 24.5185 8.01094 25.1743C7.06079 25.5485 5.16051 26.3211 3.79268 26.4929C3.51897 26.5279 3.21104 26.7196 2.95302 26.8671C2.78195 27.1594 2.60518 27.6818 2.53105 28.272C2.4783 28.694 2.48543 29.163 2.48543 29.642C2.48543 30.064 2.70853 31.3905 3.1804 32.2814C3.65297 33.1724 4.1063 33.5709 4.66441 33.831C4.77489 33.7826 5.01795 33.7462 5.39715 33.7377C6.42998 33.7141 7.23828 34.2851 7.59467 34.7748C7.73081 34.9629 8.00452 35 8.36448 35C9.19772 35 10.1144 34.7256 10.9847 34.3941C11.1707 34.2409 11.6953 33.8916 12.2107 33.4868C12.7253 33.0833 15.5942 30.6499 16.8637 30.0355C17.5323 30.3976 18.63 30.8637 19.7633 30.8637C19.8289 30.8637 20.047 30.8666 20.2787 30.8152C20.6329 30.7347 21.087 30.5772 21.6579 30.4646C22.6808 30.2657 23.8804 30.0904 24.2303 30.0953C25.1712 30.1103 27.929 30.1816 28.5826 30.1816C29.2683 30.1816 30.2462 30.1217 30.6197 30.0854C31.1971 29.8943 32.4837 29.5379 33.7161 28.9691C34.9456 28.4246 37.5345 26.6276 37.9579 26.2171C38.1639 26.0332 38.3463 25.8315 38.481 25.6518C38.5317 25.582 38.5502 25.5542 38.5502 25.4986L38.5359 23.6831C38.5359 23.6831 39.1546 22.9967 39.3913 22.7586C39.4141 22.7366 39.4155 22.7045 39.4119 22.6824C39.3057 22.3303 39.1995 21.2347 39.2601 20.1235L38.6336 19.8312C38.6053 20.9984 38.259 22.1358 37.6321 23.1207C36.7005 23.2683 34.9228 23.8193 34.2827 24.5477L34.6349 24.6482C35.2357 24.3168 35.8794 24.0844 36.615 24.0844C37.265 24.0844 37.5516 24.2555 37.5516 24.438C37.5516 24.5663 37.429 24.8735 37.3819 24.9711C37.3256 25.0823 37.2886 25.2242 37.1795 25.3425C36.2912 26.3172 35.2502 27.141 34.0974 27.7816C33.2806 28.2385 32.51 28.5457 31.3054 28.8872C30.9448 28.9891 30.4501 29.1352 30.1286 29.2464C29.6746 29.2322 27.3024 29.163 25.9168 29.163C24.5319 29.163 21.675 29.3647 20.7669 29.5943C20.3549 29.6983 20.2523 29.8644 19.7733 29.8644C18.8788 29.8644 17.7048 29.4104 16.9842 29.0611C16.8801 29.0917 16.6192 29.2072 16.3591 29.3369C15.8473 29.5914 14.7097 31.1702 14.0482 30.6927C13.7104 31.3848 12.252 32.0405 11.7531 32.7583C11.8079 32.3827 12.3967 29.9449 12.4523 29.4574C12.4623 29.3711 12.4694 29.3013 12.4145 29.2093C11.8821 28.3198 10.3938 27.7546 9.55483 27.5906C9.3082 27.5421 9.18703 27.5086 9.02166 27.4709L7.69802 27.071L6.4699 27.4709L7.88691 27.7424L6.08856 28.9342C6.40075 28.8145 8.33882 28.277 8.48209 28.2343C8.64032 28.1872 8.85202 28.1409 9.08296 28.2214C9.34669 28.3134 10.0944 28.4844 10.5392 28.6391C10.8008 28.7296 11.2292 29.2101 11.3396 29.466C11.3845 29.5729 11.4017 29.7974 11.4309 30.2942C11.4487 30.6071 11.3689 31.0419 11.2933 31.3798C11.0952 32.2636 10.6931 32.9543 10.5663 33.2009C10.3909 33.5409 10.1486 33.6507 9.90979 33.7633C9.51776 33.9472 9.03877 34.0627 8.50632 34.0698C8.14066 34.0741 7.89618 34.0549 7.74008 33.8432C7.24897 33.1803 6.03581 32.5373 4.79699 32.7768C4.03716 32.3171 3.28375 30.8331 3.28375 29.6513C3.28375 28.9428 3.64157 27.8258 3.83402 27.2649C5.07141 27.0995 7.5462 26.1565 8.75009 25.6098C9.00242 25.597 9.69453 25.3525 10.356 25.3525C11.9747 25.3525 13.5806 26.7681 14.5557 27.7246C14.7154 27.4616 15.0155 27.0632 15.843 27.0632C16.9892 27.0632 17.6449 28.1045 17.9735 29.1766L18.5708 28.7425C18.4518 28.0762 18.136 27.4608 17.6642 26.9755C17.2686 26.5799 16.5152 26.2513 15.9257 26.2513C15.5714 26.2513 15.2029 26.3304 14.9706 26.3304C14.1516 26.3304 13.818 25.9655 13.2135 25.5492C12.5606 25.098 11.3461 24.4437 10.4793 24.4437C9.9212 24.4437 9.6703 24.6625 9.20984 24.6639C8.53269 24.6682 8.28108 24.3866 7.95676 23.9832C7.81492 23.8064 7.12922 23.1977 6.94603 22.9532C6.84054 22.8128 6.65379 22.2376 6.58608 21.9496L5.65732 21.2832Z" fill="#2D2D2D"/>
<path fill-rule="evenodd" clip-rule="evenodd" d="M6.58822 21.9497C6.78495 22.16 6.97455 22.3923 7.22046 22.5805C7.45782 22.7601 7.7579 22.9162 8.03945 23.0759C8.43718 23.3011 8.88838 23.5592 9.336 23.701C9.72804 23.8193 10.237 23.8678 10.7145 23.8678C11.3952 23.8678 12.1985 23.7274 12.8636 24.0375C13.3098 24.2463 13.3397 24.7167 13.694 24.8543C14.2457 25.0689 15.7789 25.1188 16.6285 25.1188C18.3114 25.1188 20.1318 24.9056 21.2074 24.6483L20.6828 24.0702C19.9387 24.1886 17.7547 24.4266 16.7525 24.4266C15.3405 24.4266 14.0069 24.2014 14.0069 23.6162C14.0069 23.2128 14.4417 22.629 15.2692 22.629C16.1581 22.629 17.5017 23.1664 17.7497 23.2399C17.9985 23.314 18.0997 23.294 18.2558 23.222L18.7761 22.9533C18.0854 22.6318 15.6812 21.805 14.8437 21.805C14.4474 21.805 14.2328 21.862 13.9755 22.1935C13.6541 22.6069 12.7959 22.984 11.4252 22.984C10.6739 22.984 9.59902 22.85 9.36309 22.753C8.95039 22.5834 8.14209 22.1144 7.62532 21.7409C6.95887 21.2604 6.37866 20.7273 5.9795 20.105C5.86425 19.9267 5.80355 19.7186 5.80487 19.5063C5.8063 19.3445 5.85191 19.1941 5.86831 19.075C5.98734 19.2404 6.11636 19.3602 6.28101 19.5148C7.00449 20.2191 8.07224 20.748 9.16992 20.9582C9.48284 21.0181 9.76082 21.0651 10.0702 21.0651C10.5385 21.0651 10.9711 20.8142 11.2463 20.5683L10.815 20.0672C10.676 20.1093 10.3881 20.1093 10.1985 20.1093C8.60469 20.1093 6.5818 19.0665 6.11636 17.8612C6.07003 17.7429 6.01443 17.6773 6.06076 17.5675C6.10709 17.4563 6.16483 17.2218 6.19833 17.0058C6.2917 17.1127 6.48415 17.2745 6.72864 17.4321C7.32096 17.812 8.45073 18.338 8.67169 18.4763C9.2412 18.3124 9.66959 18.1213 10.0082 17.946C10.4122 17.7338 10.8612 17.6217 11.3175 17.6188C12.4822 17.6188 13.8208 18.2831 15.0782 18.9026L15.9364 18.564C14.8209 17.7799 12.3931 16.6822 11.0438 16.6822C10.2477 16.6822 9.49923 17.2646 8.96607 17.2646C8.31173 17.2646 6.43711 16.3508 6.43711 15.5888C6.43711 15.0029 7.65027 14.6707 9.60116 14.4305C9.26172 14.9323 8.94238 15.4473 8.64389 15.9744L9.1407 16.2503C12.1964 11.8253 15.3747 8.95207 18.0484 7.20147C19.0192 6.56495 19.2409 6.19359 19.5801 5.49934C20.4084 3.80647 21.1896 2.50493 22.5482 2.50493C23.1826 2.50493 23.7008 2.86061 24.0564 3.30253L25.0401 3.5962L24.0443 4.2705L25.0622 4.67465C23.7343 5.04743 21.9195 6.339 21.1853 8.23429C19.7697 8.30985 19.0869 9.4553 18.6243 10.4154C18.3121 11.0626 17.816 11.3214 17.0925 11.8111L11.3061 15.8447L12.1023 15.9545L17.4482 12.3749C18.5024 11.6635 19.0042 11.1389 19.2565 10.6335C19.7526 9.64205 20.2865 8.90503 21.335 8.90503C21.8504 8.90503 22.4021 9.12599 22.8433 9.54225L23.7806 9.84875L22.757 10.4746L23.6152 11.0013C21.1632 11.7697 19.6429 13.5267 18.7597 16.8861L19.4105 17.0336C19.7362 15.921 20.057 14.901 20.6315 14.0007C22.0528 13.9843 23.4912 13.9323 24.9032 13.9323C28.671 13.9323 31.7987 14.0913 33.4866 14.5881L32.8893 13.551C31.0831 13.2445 28.4629 13.0855 24.9032 13.0855C23.7093 13.0855 22.5004 13.1297 21.2994 13.1425C22.0742 12.3221 23.1904 11.6321 24.9089 11.099L23.6893 10.4275L25.0436 9.67626L23.1982 8.98985C22.8753 8.69975 22.474 8.43388 21.9694 8.307C22.5596 6.49082 24.5732 5.42948 26.5027 4.69817L25.1513 4.14718L26.5148 3.4009L24.4157 2.73088C23.8675 2.08723 23.3394 1.79357 22.5296 1.79357C20.583 1.79357 19.7648 3.48429 18.9928 4.98257C18.5865 5.77162 18.3292 6.10378 17.6385 6.5564C16.1417 7.53577 14.2328 9.03333 12.411 10.9514C11.4587 10.265 9.5142 8.25853 8.98531 7.16369C8.77718 7.42101 8.57119 7.98197 8.57119 7.98197C8.77005 8.19224 11.0617 10.5067 11.9127 11.4874L11.7203 11.7027C10.8129 11.883 8.45429 12.1097 7.65169 12.0007L7.20121 12.8004C7.80067 12.7412 10.1436 12.4654 11.1158 12.4084C10.8179 12.7693 10.5293 13.138 10.2505 13.5139C7.23685 13.856 5.22466 14.474 5.22466 15.5874C5.22466 15.7706 5.29808 15.9787 5.29808 16.1754C5.29808 16.6416 5.12416 16.8127 4.79272 17.0215C4.57674 17.1569 4.5632 17.2517 4.65515 17.38C4.74781 17.5105 5.21255 18.1976 5.21255 18.333C5.21255 18.5554 4.99087 18.78 4.81196 18.9788C4.65515 19.1542 4.66156 19.2005 4.78416 19.4215L5.65804 21.2783L6.58822 21.9497ZM43.8968 11.6129C43.7043 11.8153 43.5347 12.0313 43.3921 12.2608L42.9067 11.5794C44.5276 9.41966 48.8079 8.40608 51.319 8.22788V7.06961C51.0004 7.16797 50.6568 7.27845 50.3389 7.354C49.8885 7.46235 49.475 7.56285 49.1243 7.55359C48.7737 7.54503 48.4893 7.40461 48.3581 7.21715C48.021 6.73602 48.3339 6.00898 49.4373 5.32898L48.5669 4.60551C47.8955 5.47653 47.234 6.43736 46.5612 7.01116C45.9496 7.53292 45.3088 7.79308 44.7913 7.40675C44.5126 7.19862 44.4079 7.10382 44.3801 6.56067C44.4171 5.76307 44.9025 4.5442 45.3302 3.75943L44.3002 3.63825C44.117 4.84001 43.6245 5.86499 43.097 6.71036C42.4398 7.76528 41.5924 8.50515 40.7199 9.11102L40.1475 8.54721C40.8518 8.13165 41.7335 7.45594 42.3401 6.52432C43.0436 5.44232 43.6145 4.10441 43.6152 2.88912L46.5947 3.17138C46.1763 3.70312 45.4856 4.91628 45.2233 5.7873C45.0871 6.24206 45.0936 6.60344 45.2582 6.72675C45.574 6.9634 46.1271 6.58562 46.6638 6.01041C47.4208 5.19712 48.1621 3.97041 48.4893 3.53276L50.644 5.32043C49.686 5.82793 48.758 6.40743 48.9426 6.73317C49.1115 7.02969 49.7252 6.94059 50.3974 6.7346C50.9541 6.56269 51.4901 6.32962 51.9954 6.03963V8.95207C50.9569 8.93781 49.1978 9.13169 47.5035 9.64561C47.9062 10.2144 49.063 10.4233 49.7979 10.5245L49.4294 12.8881C47.5748 12.109 46.1442 11.6557 43.8968 11.6129L44.6402 10.9742C46.2967 11.0085 47.9568 11.4896 48.8977 11.9629L49.0324 11.0683C48.1849 10.9564 47.1171 10.4746 46.6652 9.92858C45.9275 10.2059 45.229 10.5516 44.6402 10.9742L43.8968 11.6129Z" fill="#2D2D2D"/>
<path fill-rule="evenodd" clip-rule="evenodd" d="M35.0183 19.1219L35.7083 17.6322C34.897 16.6724 34.1548 15.6562 33.4872 14.5915L32.8899 13.5544C31.51 10.9335 32.0125 9.6811 31.2762 8.52782C30.6675 7.57483 27.7108 8.16786 27.2205 8.2705L28.0758 6.8542L26.3901 6.9882L27.8185 5.29106C27.9746 5.0701 28.048 4.86839 28.2134 4.27963C28.4657 3.38508 29.2341 1.8583 31.4843 1.8583C33.9819 1.8583 34.756 3.87904 35.8451 4.75719C37.3322 5.95831 38.7671 7.22252 40.1461 8.54635L40.7184 9.11016C41.4562 9.86429 42.211 10.6398 42.9067 11.5785L43.3921 12.26C46.3986 16.6493 50.1343 25.0395 51.7858 28.8821C51.9455 29.2534 52.0595 29.6312 52.1586 29.9178C50.9119 29.2234 49.7006 28.4674 48.5291 27.6525L47.7878 27.1308C47.3227 26.7956 46.8629 26.4532 46.4086 26.1036L45.6466 25.5049C45.1882 25.1382 44.7365 24.7632 44.2916 24.3801L45.7949 33.1353C45.9054 33.6506 46.3459 33.5658 46.7015 33.1117C47.0572 32.6577 47.1919 32.5337 47.0572 31.9342L45.6466 25.5049L46.4086 26.1036L47.7607 31.5664C47.8919 32.059 48.1 32.2151 48.676 32.24C49.2526 32.265 49.3752 32.044 49.2526 31.6648L47.7885 27.1308L48.5298 27.6525L49.9155 31.7247C50.2712 32.7675 49.9155 32.8901 49.2904 32.8901C48.6653 32.8901 48.1015 32.7425 47.7579 32.9642C47.415 33.1844 46.9845 33.7867 46.4699 34.3149C46.0151 34.7797 45.3544 34.6585 45.2197 33.786L43.5582 23.7344C42.4901 22.7791 41.4773 21.7639 40.5246 20.6936C40.1 20.5108 39.6786 20.3205 39.2608 20.1227L38.6343 19.8304C38.4864 19.7594 38.3356 19.6944 38.1824 19.6358C37.7226 20.1883 37.2814 20.8041 36.7668 21.2453C36.4931 21.4805 36.3063 21.6145 35.9022 21.6145C35.7774 21.6145 35.6227 21.6131 35.4788 21.5311C35.3248 21.4449 35.1801 21.271 35.019 21.0258C34.8971 20.839 34.7168 20.601 34.5593 20.3365C34.2307 19.7855 33.8764 19.0934 33.5571 18.5339C33.1993 17.9045 32.8914 17.4355 32.8493 17.3578C32.7852 17.238 32.6105 17.0905 32.6105 17.0905C32.4352 17.3763 32.3062 17.9273 32.3062 18.2309L31.6811 18.0193C31.7637 17.6058 31.9298 17.072 32.0211 16.8146C32.0211 16.5937 31.773 16.2993 31.5706 16.2993C31.2855 16.2993 30.9918 16.6122 30.8442 17.2102L30.2099 17.4861C30.284 16.5203 30.614 15.4632 31.5706 15.4632C32.3432 15.4632 32.8215 16.052 33.1893 16.6037C33.5564 17.1539 34.7617 18.8005 35.0183 19.1219L35.4966 19.7278C35.58 20.1063 35.7404 20.3251 35.8181 20.4463C35.9841 20.7036 36.168 20.6858 36.4161 20.4548C36.5294 20.3508 36.8936 20.0542 37.2465 19.6865C37.553 19.3664 37.8509 18.9779 37.9707 18.7812C38.3214 18.9387 38.975 19.2517 39.501 19.4826C37.2436 16.7013 35.0825 13.3256 34.1451 11.0297C33.7574 10.081 34.5151 9.76307 34.8807 10.6982C35.8744 13.2365 38.7797 17.7242 40.913 20.0771C43.3793 22.7985 47.9019 26.7359 50.8442 28.3176C50.418 27.485 49.8542 26.2904 49.2041 24.9055C45.6252 22.8811 42.0079 19.164 40.3221 15.9707L41.0634 16.0562C42.633 18.8311 46.3808 22.5326 48.5954 23.6089C46.5711 19.313 43.9359 13.868 41.8796 11.5258C39.3285 8.62119 36.543 6.3745 35.2122 5.20553C33.9007 4.05296 33.3604 2.60672 31.4722 2.60672C29.9148 2.60672 29.0965 3.72793 28.7843 4.85983C28.7194 5.08079 28.6831 5.21836 28.527 5.44788L27.7914 6.33102L29.3816 6.13786L28.4614 7.42514C28.4614 7.42514 30.9547 6.86561 31.8279 8.05025C32.7673 9.32756 32.1608 10.7617 33.7032 13.5494C34.3818 14.7747 36.0226 16.9779 36.5715 17.4668L35.4959 19.7278L35.0183 19.1219ZM10.5128 19.5075L10.1357 19.2517C10.4525 18.9975 10.8018 18.7868 11.1743 18.6251C11.3747 18.5429 11.5885 18.498 11.8051 18.4925C12.2278 18.4925 12.592 18.6693 12.9477 18.8589C13.5101 19.1583 14.1416 19.5104 14.6256 19.5104C14.8095 19.5104 14.9877 19.4669 15.1958 19.4669C15.6748 19.4669 16.1345 19.6815 16.3975 19.6815C16.5572 19.6815 16.6677 19.5382 16.7725 19.3878C17.0362 19.0079 17.4004 18.7263 17.8659 18.5317C18.3655 18.3229 18.9664 18.2395 19.62 18.2395C20.1347 18.2395 20.6286 18.3136 20.8859 18.3692C20.8859 18.3692 20.4932 18.8425 20.3948 18.9473C19.8752 18.9473 18.8852 18.9295 18.2494 19.1868C17.8588 19.3443 17.719 19.571 17.719 19.8953C17.719 20.3629 18.2422 20.5468 18.8253 20.7236C19.1688 20.8276 19.5545 20.8533 19.8795 20.8533C20.2801 20.8533 21.0477 20.7029 21.8061 20.5361C22.7221 20.3344 23.5731 20.0935 23.8219 20.0015L24.1526 20.596C23.1334 20.941 22.0913 21.2681 21.124 21.4649C20.5773 21.576 20.0563 21.6445 19.5915 21.6445C18.8153 21.6445 17.9728 21.3187 17.28 20.9887C16.6955 20.71 16.1744 20.4349 15.7083 20.4349C15.1844 20.4349 14.6919 20.6159 14.2064 20.8932C13.9691 21.0293 13.2527 21.5226 12.6148 21.7728C12.1251 21.9674 11.726 22.075 11.2299 22.075C10.7879 22.075 10.5242 22.0123 10.2954 21.8341L11.0638 21.3636C11.1629 21.4613 11.3403 21.4791 11.4501 21.4791C11.5606 21.4791 11.6925 21.4648 11.994 21.3401C12.1665 21.2674 12.4174 21.1134 12.5642 21.0186C12.8678 20.8226 12.9683 20.7079 13.0881 20.6138C13.3205 20.4299 13.406 20.1861 13.1095 19.9217C12.9643 19.7847 12.8063 19.662 12.6376 19.5553C12.3717 19.3964 12.18 19.241 11.6996 19.241C11.1322 19.2388 10.7323 19.3949 10.5128 19.5075Z" fill="#2D2D2D"/>
<path fill-rule="evenodd" clip-rule="evenodd" d="M21.2168 19.8127C21.2168 19.8127 20.7599 19.6858 20.6003 19.6737C20.8879 19.2923 21.2358 18.9603 21.6302 18.6908C22.2539 18.2688 22.9068 18.0379 23.8948 17.978C24.1635 17.9616 24.7109 17.9096 25.0167 17.9224C25.2925 17.9352 25.7587 17.9531 26.1878 18.0322C26.4914 18.0892 26.7744 18.174 27.0096 18.2104C27.1529 18.2325 27.6511 18.2253 27.8243 18.1976C28.5236 18.0878 29.3632 17.8176 29.8052 17.5767L29.9891 18.2489C29.0446 18.7307 27.9776 19.1954 27.0011 19.1954C26.5036 19.1954 25.9754 19.1577 25.4828 19.1121C24.6147 19.0287 23.8634 18.9132 23.6047 18.9132C22.9019 18.9132 21.8904 19.2404 21.2168 19.8127ZM20.5197 23.5506L19.6316 23.1443C20.8633 22.5206 22.745 21.8955 23.517 21.7715C24.2896 21.6503 25.1728 21.5569 25.681 21.3858C25.9141 21.9746 26.3745 22.604 27.0367 22.604C27.2784 22.604 27.6754 22.4215 28.0745 22.2447C28.5229 22.0473 28.9734 21.8313 29.2064 21.7265C29.4588 21.6153 30.277 21.2561 30.9706 20.9468C31.3176 20.789 31.6624 20.6265 32.0048 20.4592L32.471 20.7115C32.3313 21.3238 32.0982 22.0772 31.8359 22.6161C31.7333 22.8278 31.6306 23.0017 31.5201 23.1272C31.3177 23.3553 30.9905 23.6589 30.5636 23.9611C30.0974 24.2926 29.5293 24.6319 28.9263 24.9776C28.4566 25.2491 27.984 25.5235 27.505 25.7431L27.2563 25.2919C27.9947 24.8742 28.7453 24.3453 29.4053 23.8563C29.7175 23.6254 30.0197 23.3916 30.2357 23.1935C30.3961 23.0473 30.4966 22.9262 30.5764 22.8078C30.7724 22.5199 31.0918 21.9561 31.1894 21.6859C30.9143 21.8206 29.8722 22.3125 29.406 22.5562C28.88 22.8335 28.0268 23.2676 27.5485 23.4943C27.1721 23.671 26.8364 23.7687 26.5955 23.7687C26.0616 23.7687 25.8193 23.3845 25.6881 23.1521C25.351 22.5505 24.9896 22.4949 24.0387 22.4828C22.9353 22.4693 21.4214 22.9254 20.5197 23.5506ZM25.7031 20.7778C25.7031 20.7778 25.5741 20.2532 25.5128 20.0622C25.5128 20.0622 25.666 20.0123 25.8685 20.0123C26.1992 20.0123 27.0168 20.1042 27.356 20.1042C28.6334 20.1042 29.1045 19.7022 29.4794 19.3637C29.7995 19.0757 30.1281 18.8405 30.997 18.8405C31.7632 18.8405 32.6428 19.1498 32.8944 19.2717L32.8395 19.9695C32.4257 19.7483 31.9651 19.6291 31.4959 19.6217C31.1794 19.6217 30.8943 19.6466 30.6933 19.7514C30.4674 19.8683 30.3298 20.0437 30.1174 20.2176C29.8921 20.4029 29.5835 20.5825 29.1793 20.7315C28.7752 20.8805 28.2748 20.9824 27.5285 20.9824C26.5435 20.981 26.0096 20.8163 25.7031 20.7778Z" fill="#2D2D2D"/>
<path fill-rule="evenodd" clip-rule="evenodd" d="M17.6135 26.0453L18.2023 25.8015C18.7419 26.0104 19.5216 26.247 20.0641 26.247C20.3905 26.247 20.66 26.1301 20.8816 26.031C21.0556 25.9534 23.0171 24.9911 23.9908 24.6376C24.3002 24.5264 24.6145 24.4636 24.767 24.4636C25.0001 24.4636 25.0136 24.5677 25.0792 24.6753C25.2631 24.969 26.7115 27.0361 26.8583 27.195C28.0865 26.818 29.3445 26.2648 30.0701 25.5692C30.8264 24.84 31.4544 23.996 32.0609 23.3431C32.2947 23.0908 32.5841 22.8627 32.7274 22.7864C33.3554 22.4521 35.3084 22.4243 36.1295 22.4607L35.6427 23.15C34.1957 23.15 33.386 23.2989 33.0218 23.5734C32.8678 23.6888 32.6355 23.9226 32.4138 24.2113C31.9198 24.8557 31.3802 25.7374 31.1643 25.9099C31.5877 26.2035 32.051 26.4609 32.7858 26.4609C34.0118 26.4609 34.89 25.6939 35.3711 25.2605L35.7831 25.5057C35.4787 25.9013 35.1302 26.3062 34.6861 26.6084C34.1936 26.9427 33.5728 27.1594 33.2057 27.2613C32.4943 27.1266 30.9276 26.8101 30.5605 26.7367C29.2055 27.2891 26.9988 28.1815 26.2575 28.4046C26.0935 28.4456 25.9263 28.4721 25.7578 28.4838C25.1719 28.5158 24.3572 28.5116 23.6152 28.503C23.0884 28.4959 22.5902 28.4987 22.34 28.4531L21.6864 27.771C22.263 27.8807 22.4875 27.9142 23.0264 27.9142C24.3016 27.9142 25.122 27.7011 25.3929 27.632C25.6202 27.5735 25.658 27.4424 25.5903 27.2364C25.4827 26.9092 25.2938 26.5984 25.0065 26.2663C24.8103 26.0526 24.5949 25.8574 24.3629 25.6832C24.1875 25.5635 24.0165 25.5328 23.5353 25.6975C23.0891 25.8493 21.7049 26.5984 21.1083 26.9156C20.8132 27.0731 20.5837 27.1188 20.0541 26.9933C19.4931 26.8614 18.1517 26.371 17.6135 26.0453ZM21.4519 10.6826C21.5851 10.6826 21.713 10.6297 21.8072 10.5354C21.9014 10.4412 21.9544 10.3134 21.9544 10.1801C21.9544 10.0468 21.9014 9.919 21.8072 9.82476C21.713 9.73052 21.5851 9.67757 21.4519 9.67757C21.3186 9.67757 21.1908 9.73052 21.0965 9.82476C21.0023 9.919 20.9494 10.0468 20.9494 10.1801C20.9494 10.3134 21.0023 10.4412 21.0965 10.5354C21.1908 10.6297 21.3186 10.6826 21.4519 10.6826Z" fill="#2D2D2D"/>
</svg>
