<svg width="73" height="47" viewBox="0 0 73 47" fill="none" xmlns="http://www.w3.org/2000/svg">
<path d="M67.0521 18.386C69.2573 16.032 70.382 12.7138 69.7783 9.28956C68.7606 3.51793 63.2632 -0.331343 57.4916 0.686351C51.72 1.70405 47.8707 7.20137 48.8884 12.973C49.0137 13.6837 49.2125 14.3703 49.4613 15.0259L21.8953 19.8865C21.9157 19.1835 21.8569 18.4722 21.7316 17.7615C20.7139 11.9899 15.2166 8.14058 9.44493 9.15828C3.6733 10.176 -0.175971 15.6733 0.841723 21.4449C1.4455 24.8691 3.62653 27.6044 6.51461 29.0604C4.30944 31.4144 3.1847 34.7326 3.78848 38.1568C4.80618 43.9285 10.3035 47.7777 16.0751 46.76C21.8468 45.7423 25.696 40.245 24.6783 34.4734C24.553 33.7627 24.3542 33.0761 24.1054 32.4205L51.6714 27.5598C51.651 28.2629 51.7099 28.9742 51.8352 29.6849C52.8529 35.4565 58.3502 39.3058 64.1218 38.2881C69.8934 37.2704 73.7427 31.7731 72.725 26.0015C72.1105 22.5791 69.9294 19.8438 67.0521 18.386Z" fill="#2D2D2D"/>
</svg>
