<svg width="31" height="30" viewBox="0 0 31 30" fill="none" xmlns="http://www.w3.org/2000/svg">
<mask id="mask0_314_689" style="mask-type:alpha" maskUnits="userSpaceOnUse" x="0" y="0" width="31" height="30">
<g clip-path="url(#clip0_314_689)">
<path d="M28.3364 0H2.66362C1.46863 0 0.5 0.968628 0.5 2.16362V27.8364C0.5 29.0314 1.46863 30 2.66362 30H28.3364C29.5314 30 30.5 29.0314 30.5 27.8364V2.16362C30.5 0.968628 29.5314 0 28.3364 0V0ZM22.3488 11.6954C22.3555 11.843 22.3587 11.9913 22.3587 12.1404C22.3587 16.6898 18.8957 21.936 12.5628 21.9363H12.563H12.5628C10.6184 21.9363 8.8091 21.3663 7.28543 20.3897C7.55482 20.4215 7.82903 20.4373 8.10666 20.4373C9.71982 20.4373 11.2043 19.8871 12.3829 18.9635C10.8757 18.9356 9.60492 17.9402 9.16638 16.5722C9.37627 16.6125 9.5921 16.6344 9.81343 16.6344C10.1277 16.6344 10.4321 16.5921 10.7214 16.5131C9.14601 16.1977 7.95926 14.8055 7.95926 13.1383C7.95926 13.1227 7.95926 13.1087 7.95972 13.0943C8.42366 13.3523 8.95421 13.5075 9.51909 13.5249C8.59464 12.908 7.98695 11.8536 7.98695 10.659C7.98695 10.0282 8.15747 9.43726 8.45319 8.92845C10.151 11.0117 12.6884 12.3818 15.5499 12.5258C15.4908 12.2736 15.4604 12.0108 15.4604 11.7407C15.4604 9.84009 17.0024 8.29811 18.9037 8.29811C19.8941 8.29811 20.7885 8.71674 21.4168 9.38599C22.2012 9.23126 22.9377 8.9447 23.6031 8.55034C23.3456 9.35394 22.8 10.0282 22.0891 10.4546C22.7855 10.3713 23.4493 10.1866 24.0661 9.91241C23.6054 10.603 23.0211 11.2095 22.3488 11.6954Z" fill="white"/>
</g>
</mask>
<g mask="url(#mask0_314_689)">
<circle cx="15.5" cy="15" r="15" fill="#2D2D2D"/>
</g>
<defs>
<clipPath id="clip0_314_689">
<rect width="30" height="30" fill="white" transform="translate(0.5)"/>
</clipPath>
</defs>
</svg>
