<svg width="142" height="35" viewBox="0 0 142 35" fill="none" xmlns="http://www.w3.org/2000/svg">
<path d="M1.53589 7.64687C1.53589 7.64687 4.98866 21.7954 5.53971 24.0919C6.18289 26.7723 7.34177 27.7589 10.6831 27.0936L12.8391 18.3216C13.3855 16.1427 13.752 14.5893 14.1033 12.3728H14.165C14.4119 14.611 14.7633 16.1492 15.213 18.3292C15.213 18.3292 16.0906 22.3114 16.5401 24.4031C16.9907 26.4939 18.2448 27.8117 21.5176 27.0943L26.6548 7.64836H22.5071L20.7533 16.0558C20.2818 18.503 19.8539 20.4152 19.524 22.6541H19.4655C19.1657 20.4376 18.7843 18.6011 18.3049 16.2167L16.4788 7.64836H12.1573L10.2039 16.0009C9.65055 18.5389 9.13296 20.5885 8.80381 22.7514H8.7442C8.40713 20.7145 7.95818 18.1386 7.47202 15.6817C7.47202 15.6817 6.3115 9.7076 5.90432 7.64836L1.53629 7.64892L1.53589 7.64687ZM41.0754 7.64687V27.0928H45.0243V22.9636V7.64594H41.0754V7.64687ZM96.6924 7.64687V21.9925C96.6924 23.9704 97.0646 25.3561 97.8609 26.2027C98.5567 26.9431 99.7027 27.4225 101.076 27.4225C102.243 27.4225 103.392 27.2011 103.934 26.9994L103.883 23.9135C103.48 24.0126 103.016 24.0919 102.383 24.0919C101.037 24.0919 100.586 23.2304 100.586 21.4545V15.9659H104.025V12.2454H100.586V7.64693H96.6922L96.6924 7.64687ZM32.2504 12.1549C29.7962 12.1549 27.8481 12.8439 26.7862 13.4576L27.5633 16.1187C28.5352 15.506 30.0826 14.9988 31.5478 14.9988C33.9737 14.9925 34.3702 16.3704 34.3702 17.2542V17.4632C29.0843 17.4552 25.7455 19.2843 25.7455 23.0128C25.7455 25.2892 27.4451 27.4225 30.4007 27.4225C32.22 27.4225 33.7416 26.6969 34.6535 25.5343H34.7429C34.7429 25.5343 35.3468 28.0591 38.6736 27.0936C38.4988 26.0428 38.4421 24.9223 38.4421 23.5729V18.378C38.4421 15.0671 37.0284 12.1549 32.2504 12.1549L32.2504 12.1549ZM55.8725 12.1549C53.4014 12.1549 52.2909 13.4071 51.6176 14.4696H51.5591V12.4846H47.7905V27.0937H51.7604V18.5261C51.7604 18.1245 51.8063 17.6997 51.9465 17.3302C52.2754 16.4676 53.078 15.4586 54.3594 15.4586C55.9612 15.4586 56.7108 16.8129 56.7108 18.7673V27.0936H60.6764V18.4223C60.6764 18.0389 60.729 17.5771 60.8418 17.2381C61.1679 16.2569 62.0331 15.4584 63.2241 15.4584C64.8481 15.4584 65.6275 16.7892 65.6275 19.089V27.0936H69.5959V18.4893C69.5959 13.9516 67.2918 12.1549 64.6908 12.1549C63.5389 12.1549 62.6297 12.4438 61.8077 12.9484C61.1167 13.3724 60.4982 13.9748 59.9576 14.768H59.8991C59.27 13.1936 57.7942 12.1549 55.8718 12.1549L55.8725 12.1549ZM77.6726 12.1549C75.219 12.1549 73.2713 12.8439 72.2084 13.4576L72.9866 16.1187C73.9575 15.506 75.5059 14.9988 76.9704 14.9988C79.3945 14.9925 79.7921 16.3704 79.7921 17.2542V17.4632C74.5069 17.4552 71.1677 19.2843 71.1677 23.0128C71.1677 25.2892 72.8682 27.4225 75.8253 27.4225C77.6432 27.4225 79.1653 26.6969 80.0755 25.5343H80.1653C80.1653 25.5343 80.769 28.0591 84.0963 27.0936C83.9213 26.0428 83.8652 24.9223 83.8652 23.5729V18.378C83.8652 15.0671 82.4511 12.1549 77.6726 12.1549L77.6726 12.1549ZM94.1587 12.1549C92.6385 12.1549 90.909 13.1361 90.183 15.2397H90.0722V12.4844H86.4984V27.0936H90.5724V19.6128C90.5724 19.2092 90.5969 18.8573 90.6607 18.5347C90.962 16.9676 92.1606 15.9659 93.8809 15.9659C94.3531 15.9659 94.6911 16.017 95.0567 16.0698V12.2452C94.7501 12.1833 94.5404 12.1547 94.159 12.1547L94.1587 12.1549ZM34.4978 20.052V21.8745C34.4978 22.1441 34.4743 22.4222 34.3996 22.6654C34.094 23.6776 33.0454 24.533 31.7346 24.533C30.6418 24.533 29.7736 23.9127 29.7736 22.6006C29.7736 20.5937 31.9829 20.0389 34.4979 20.052H34.4978ZM79.92 20.052V21.8745C79.92 22.1441 79.896 22.4222 79.8218 22.6654C79.5162 23.6776 78.468 24.533 77.1572 24.533C76.0641 24.533 75.1959 23.9127 75.1959 22.6006C75.1959 20.5937 77.4051 20.0389 79.9201 20.052H79.92Z" fill="#2D2D2D"/>
<path d="M125.377 0.614037C124.102 0.614037 123.089 1.32597 123.089 2.19267L123.863 10.9596C123.948 11.4878 124.595 11.8952 125.378 11.8952C126.161 11.8942 126.806 11.4871 126.893 10.9596L127.671 2.19267C127.671 1.32604 126.655 0.614111 125.378 0.614111L125.377 0.614037ZM112.76 7.64646C112.098 7.66216 111.346 8.16326 110.868 8.99245C110.228 10.0966 110.342 11.3305 111.09 11.7634L119.069 15.479C119.567 15.6644 120.244 15.3104 120.636 14.6346C120.636 14.6345 120.636 14.6344 120.636 14.6343C121.03 13.9551 120.999 13.1915 120.585 12.8528L113.379 7.7985C113.191 7.69011 112.981 7.64133 112.76 7.64656L112.76 7.64646ZM137.994 7.64646C137.773 7.64122 137.563 7.69 137.376 7.79839L130.169 12.8527C129.757 13.1914 129.727 13.955 130.119 14.6342L130.119 14.6345C130.512 15.3103 131.187 15.6643 131.686 15.4789L139.668 11.7635C140.419 11.3306 140.527 10.0967 139.892 8.99253C139.411 8.16331 138.658 7.66224 137.996 7.64653L137.994 7.64646ZM119.367 19.2132C119.263 19.2118 119.163 19.2277 119.07 19.263L111.091 22.9741C110.343 23.4089 110.229 24.6433 110.869 25.7486C111.507 26.8506 112.631 27.3745 113.379 26.9423L120.586 21.8919C121 21.5491 121.031 20.7857 120.637 20.1072L120.64 20.1087C120.322 19.5561 119.814 19.2192 119.367 19.2131L119.367 19.2132ZM131.391 19.2132C130.944 19.2193 130.437 19.5562 130.118 20.1088L130.121 20.1073C129.729 20.7858 129.759 21.5492 130.171 21.8921L137.378 26.9424C138.125 27.3746 139.25 26.8507 139.891 25.7487C140.526 24.6434 140.419 23.409 139.667 22.9743L131.687 19.2631C131.594 19.2278 131.494 19.2119 131.391 19.2133L131.391 19.2132ZM125.376 22.8465C124.595 22.8475 123.949 23.2532 123.864 23.78L123.09 32.5465C123.09 33.4147 124.103 34.1252 125.378 34.1252C126.655 34.1252 127.67 33.4147 127.67 32.5465L126.894 23.78C126.807 23.2532 126.162 22.8475 125.379 22.8465H125.376H125.376Z" fill="#2D2D2D"/>
</svg>
